<svg xmlns="http://www.w3.org/2000/svg" viewBox="0 0 377 106"><defs><style>.a{fill:#fff;}.b{fill:#86c1ee;}.c{fill:#e7f2fb;}.d{fill:#efc100;}.e{fill:#0d83dd;}.f{fill:none;stroke:#fff;stroke-width:3.05px;}</style></defs><title>join-10-million</title><path class="a" d="M130.6,66A46.6,46.6,0,0,0,59.32,20.14V66Z"/><path class="b" d="M77.88,16.43c-2.89,0-6.16,2.28-9.15,4.57S63,25.56,61.3,25.56a1.49,1.49,0,0,1-.86-.25c-1.5-1-1.47-3.35-.07-5.8a46.56,46.56,0,0,0,30,86c-.21-.7.4-2.08-.13-3.58-1.05-3-6.76-5.26-7.21-7.81s7.07-2.56-3.3-7.22-14-7.51-15.63-12.32C62.86,71,61.69,66,60.65,66s-.6,2.6-1.4,3.16a1.2,1.2,0,0,1-.69.26c-1.86,0-2.59-6.08-2-9.82a23.08,23.08,0,0,1,3.77-9c2-2.56,3.44-3.81.65-9.87-2.71-5.89-2.62-9.48,1.3-11.41A6.21,6.21,0,0,1,65,28.69c2.18,0,4.42,1.44,5.85,5.79.8,2.43,2,3.17,3.36,3.17a12.25,12.25,0,0,0,3.78-1,12.94,12.94,0,0,1,4.28-1,5.81,5.81,0,0,1,1.36.16c4.79,1.15,8,7.91,3.75,7.91H87.2c-4.54-.19-2.07-3.86-3.28-4.46a.49.49,0,0,0-.22,0c-.88,0-2.73,1.77-4.1,5-1.87,4.43-.37,8.68,1.59,8.68.92,0,2-.94,2.78-3.25a20.86,20.86,0,0,0,.76-3.19c.24-1.37.9-2,1.87-2,2.21,0,6,3,10.09,6.6,2.23,1.94,3.06,2.76,2.72,3.41a.54.54,0,0,1-.53.28,9.59,9.59,0,0,1-3.28-1.45,7.85,7.85,0,0,0-3.48-1.15A1.58,1.58,0,0,0,90.6,53c-.61,1.18.31,2.1,2.35,3.08,2.61,1.25,1.1,2.14-1.69,5.06-1.53,1.61-1.68,1.62-5,6.22-.95,1.33-2.1,3.13-2.88,4.41a1.27,1.27,0,0,1-1.1.73,3.93,3.93,0,0,1-1.71-.71,10.59,10.59,0,0,0-4.92-1.47c-2.16,0-4,1.12-4.22,4.4-.17,2.5.25,3.18,1,3.18A4.82,4.82,0,0,0,74,77.45,5.05,5.05,0,0,1,75.88,77a1.91,1.91,0,0,1,1.14.36c2.63,1.88-.9,3.26,4.81,7.51,1.4,1,2.25,1.45,3,1.45s1.63-.56,3-1.3c2.45-1.34,3.82-1.88,5.16-1.88s2.68.56,5.06,1.43c6.23,2.25,7.51,3,12.47,3.31h4.24c2,0,2.59.46,1.32,3.78-1.48,3.88-8,8.11-14.47,11a46.59,46.59,0,0,0,29-37.56,2,2,0,0,1-1.7.92c-2.56,0-6.09-4.3-6.62-7.86-.88-5.9-.3-11.58-3.25-11.9s-3.11-1.66-4.39-4.65c-1.59-3.72-3.93-8.85-10.16-12C94.27,24.3,99.23,22.8,94.38,18.87a6.19,6.19,0,0,0-4.1-1.56,15.32,15.32,0,0,0-2.78.35,16.3,16.3,0,0,1-3,.35A9.89,9.89,0,0,1,80,16.9a4.72,4.72,0,0,0-2.1-.47M98.3,43.75a6.66,6.66,0,0,1-2-.34c-2.68-.87-4.28-3.63-5.36-6.31-1.53-3.8-6.82-3-8.44-4.6s1.35-3.44,4-4a11.79,11.79,0,0,1,2.25-.24c2,0,3.86.66,6.57,2.36,4.95,3.11,1.55,7,2.26,8.63.28.65,1.91,1.18,2.48,1.75,1.51,1.49.34,2.7-1.73,2.7"/><path class="c" d="M65,28.69a6.21,6.21,0,0,0-2.71.68c-3.92,1.93-4,5.52-1.3,11.41,2.79,6.06,1.32,7.31-.65,9.87a23.08,23.08,0,0,0-3.77,9c-.61,3.74.12,9.82,2,9.82a1.2,1.2,0,0,0,.69-.26c.79-.56.34-3.16,1.4-3.16s2.22,5,3.45,8.57c1.65,4.81,5.26,7.66,15.63,12.32s2.85,4.66,3.3,7.22S89.2,99,90.25,102c.52,1.49-.09,2.88.13,3.58h0a46.28,46.28,0,0,0,10-2.4l1.27-.56c6.49-2.93,13-7.16,14.47-11,1.27-3.32.64-3.78-1.32-3.78h-4.24c-5-.3-6.24-1.06-12.47-3.31C95.7,83.67,94.38,83.1,93,83.1s-2.7.54-5.16,1.88c-1.37.74-2.12,1.3-3,1.3s-1.6-.41-3-1.45c-5.71-4.25-2.18-5.63-4.81-7.51A1.91,1.91,0,0,0,75.88,77a5,5,0,0,0-1.86.49,4.82,4.82,0,0,1-1.58.49c-.73,0-1.15-.68-1-3.18.23-3.28,2.06-4.4,4.22-4.4a10.59,10.59,0,0,1,4.92,1.47,3.93,3.93,0,0,0,1.71.71,1.27,1.27,0,0,0,1.1-.74c.77-1.28,1.93-3.08,2.88-4.41,3.3-4.6,3.44-4.62,5-6.22C94,58.29,95.57,57.4,93,56.15c-2-1-3-1.9-2.35-3.08a1.58,1.58,0,0,1,1.53-.78,7.85,7.85,0,0,1,3.48,1.15,9.59,9.59,0,0,0,3.28,1.45.54.54,0,0,0,.53-.28c.34-.66-.5-1.47-2.72-3.41-4.07-3.56-7.88-6.6-10.09-6.6-1,0-1.62.58-1.87,2A20.87,20.87,0,0,1,84,49.7C83.17,52,82.14,53,81.22,53c-2,0-3.46-4.25-1.59-8.68,1.38-3.26,3.23-5,4.1-5a.49.49,0,0,1,.22,0c1.21.6-1.26,4.27,3.28,4.46h.18c4.27,0,1-6.76-3.75-7.91a5.82,5.82,0,0,0-1.36-.16,12.94,12.94,0,0,0-4.28,1,12.25,12.25,0,0,1-3.78,1c-1.4,0-2.56-.75-3.36-3.17-1.44-4.4-3.67-5.84-5.88-5.84"/><path class="c" d="M84.48,12.77a46.36,46.36,0,0,0-24.08,6.7h0c-1.4,2.46-1.43,4.78.07,5.8a1.49,1.49,0,0,0,.86.25c1.74,0,4.44-2.28,7.42-4.57S75,16.38,77.9,16.38a4.71,4.71,0,0,1,2.1.47A9.89,9.89,0,0,0,84.44,18a16.3,16.3,0,0,0,3-.35,15.32,15.32,0,0,1,2.78-.35,6.19,6.19,0,0,1,4.1,1.56c4.86,3.93-.1,5.43,10.11,10.69,6.23,3.21,8.58,8.34,10.16,12,1.28,3,1.38,4.32,4.39,4.65s2.37,6,3.25,11.9c.53,3.56,4.06,7.86,6.62,7.86a2,2,0,0,0,1.7-.92l.16-.25a47.08,47.08,0,0,0,.32-5.45A46.59,46.59,0,0,0,84.48,12.77"/><path class="c" d="M88.71,28.31a11.79,11.79,0,0,0-2.25.24c-2.65.51-5.63,2.32-4,4s6.91.8,8.44,4.6c1.08,2.68,2.67,5.44,5.36,6.31a6.67,6.67,0,0,0,2,.34c2.07,0,3.23-1.21,1.73-2.7-.57-.57-2.2-1.1-2.48-1.75-.72-1.64,2.69-5.52-2.26-8.63-2.71-1.7-4.58-2.36-6.57-2.36"/><path class="d" d="M57,9.67h0l.11,1.86a.17.17,0,0,0,.12.14l1.15.29c.06,0,.07.06,0,.09l-.94.61a.2.2,0,0,0-.08.17l.14,1.44h0l-.83-1.21a.08.08,0,0,0-.11,0h0l-.88,1.16h-.06l.2-1.81a.29.29,0,0,0-.06-.2L55,11.47V11.4l1,.14a.15.15,0,0,0,.15-.09Z"/><path class="d" d="M31.16,43h0l.09,1.54a.14.14,0,0,0,.1.12l1,.24s.06,0,0,.07l-.78.51a.17.17,0,0,0-.07.14l.12,1.19h0l-.68-1a.06.06,0,0,0-.08,0h0l-.73,1h0l.17-1.5a.24.24,0,0,0,0-.16l-.55-.61v-.06l.86.12a.13.13,0,0,0,.13-.08Z"/><path class="d" d="M28.58,34h0l.11,1.84a.16.16,0,0,0,.12.14l1.13.29c.06,0,.07,0,0,.09L29,37a.2.2,0,0,0-.08.17l.14,1.42h0l-.81-1.2a.08.08,0,0,0-.11,0h0l-.87,1.14h-.06l.2-1.79a.29.29,0,0,0-.06-.19l-.66-.73v-.07l1,.14a.15.15,0,0,0,.15-.09Z"/><path class="d" d="M25.5,45.94c0-.09.07-.09.08,0l.18,3a.26.26,0,0,0,.18.22l1.81.46c.1,0,.11.09,0,.14l-1.49,1a.32.32,0,0,0-.13.28l.23,2.27c0,.1,0,.11-.08,0l-1.28-2a.12.12,0,0,0-.16,0h0L23.4,53.17c-.06.08-.1.06-.09,0l.32-2.87a.45.45,0,0,0-.1-.31l-1.06-1.17c-.07-.07,0-.12.06-.11l1.64.22a.24.24,0,0,0,.24-.14Z"/><path class="d" d="M23,36.69c0-.09.07-.09.08,0l.18,3a.26.26,0,0,0,.18.22l1.81.46c.1,0,.11.09,0,.14l-1.49,1a.32.32,0,0,0-.13.28l.2,2.21c0,.1,0,.11-.08,0l-1.31-1.92a.12.12,0,0,0-.16,0h0l-1.39,1.83c-.06.08-.1.06-.09,0L21.07,41a.45.45,0,0,0-.1-.31l-1.06-1.17c-.07-.07,0-.12.06-.11l1.64.22a.24.24,0,0,0,.24-.14Z"/><path class="d" d="M18.12,19.6c0-.07,0-.07.06,0l.22,2.27a.2.2,0,0,0,.15.17l1.41.3c.07,0,.08.06,0,.11l-1.12.79a.25.25,0,0,0-.09.22L19,25.2c0,.08,0,.09-.06,0l-1.06-1.44a.09.09,0,0,0-.12,0h0l-1,1.45c0,.06-.07,0-.07,0L16.8,23a.35.35,0,0,0-.09-.24l-.85-.87a.06.06,0,0,1,0-.08h0l1.27.12a.18.18,0,0,0,.18-.12Z"/><path class="d" d="M9.41,15.63c0-.09.07-.09.08,0l.29,2.94a.26.26,0,0,0,.19.22l1.83.39c.1,0,.11.08,0,.14l-1.45,1a.32.32,0,0,0-.12.28l.32,2.26c0,.1,0,.11-.08,0l-1.36-1.8a.12.12,0,0,0-.16,0h0L7.58,22.94c-.06.08-.1.07-.09,0L7.7,20a.45.45,0,0,0-.11-.31L6.49,18.6c-.07-.07,0-.12.05-.11l1.65.16a.24.24,0,0,0,.24-.15Z"/><path class="d" d="M19.8,7.14c0-.1.06-.09.08,0L20.4,10a.26.26,0,0,0,.21.2l1.86.24c.1,0,.12.07,0,.14l-1.36,1.14A.32.32,0,0,0,21,12l.5,2.23c0,.1,0,.11-.08,0L19.9,12.49a.12.12,0,0,0-.16,0h0l-1.16,2c0,.09-.09.07-.09,0V11.6a.46.46,0,0,0-.14-.3l-1.19-1a.08.08,0,0,1,0-.12h1.65A.24.24,0,0,0,19,10Z"/><path class="d" d="M59.81.37c0-.09.07-.09.08,0l.18,3a.26.26,0,0,0,.18.22L62.06,4c.1,0,.11.09,0,.14l-1.49,1a.32.32,0,0,0-.13.28l.23,2.27c0,.1,0,.11-.08,0L59.3,5.78a.12.12,0,0,0-.16,0h0L57.7,7.61c-.06.08-.1.06-.09,0l.32-2.87a.46.46,0,0,0-.1-.31L56.77,3.22c-.07-.07,0-.12.06-.11l1.64.22a.24.24,0,0,0,.24-.14Z"/><path class="d" d="M150,38.66c0-.06,0-.06.05,0l.12,2a.18.18,0,0,0,.12.15l1.23.31c.06,0,.07.06,0,.1l-1,.65a.22.22,0,0,0-.09.19l.15,1.54c0,.07,0,.08-.06,0l-.88-1.3a.08.08,0,0,0-.11,0h0l-.94,1.24h-.06l.22-1.94a.31.31,0,0,0-.07-.21L148,40.6v-.07l1.11.15a.16.16,0,0,0,.16-.1Z"/><path class="d" d="M142.85,44c0-.09.07-.09.08,0l.17,3a.26.26,0,0,0,.18.22l1.81.46c.1,0,.11.09,0,.14l-1.49,1a.32.32,0,0,0-.13.28l.23,2.27c0,.1,0,.11-.08,0l-1.31-1.92a.12.12,0,0,0-.16,0h0l-1.39,1.83c-.06.08-.1.06-.09,0l.32-2.87a.45.45,0,0,0-.1-.31l-1.06-1.17c-.07-.07,0-.12.06-.11l1.64.22a.24.24,0,0,0,.24-.14Z"/><path class="d" d="M150.24,47.7c0-.06,0-.06.05,0l.12,2a.18.18,0,0,0,.13.15l1.24.31c.07,0,.07.06,0,.1l-1,.66a.22.22,0,0,0-.09.19l.16,1.55c0,.07,0,.08-.06,0l-.89-1.31a.08.08,0,0,0-.11,0h0l-.95,1.25h-.06l.22-2a.31.31,0,0,0-.07-.21l-.72-.8v-.07l1.12.15a.16.16,0,0,0,.17-.1Z"/><path class="d" d="M152.41,10.7c0-.09.07-.09.08,0l.18,2.95a.26.26,0,0,0,.18.22l1.81.46c.1,0,.11.09,0,.14l-1.49,1a.32.32,0,0,0-.13.28l.23,2.27c0,.1,0,.11-.08,0L151.9,16.1a.12.12,0,0,0-.16,0h0l-1.39,1.83c-.06.08-.1.06-.09,0l.32-2.87a.46.46,0,0,0-.1-.31l-1.06-1.17c-.07-.07,0-.12.06-.11l1.64.22a.24.24,0,0,0,.24-.14Z"/><path class="d" d="M159.23,18.15c0-.14.09-.14.11,0l.77,4.3a.39.39,0,0,0,.31.3l2.75.36c.14,0,.17.11.06.2l-2,1.68a.48.48,0,0,0-.15.43l.73,3.3c0,.14,0,.17-.12.06l-2.26-2.6a.18.18,0,0,0-.31,0l-1.73,2.94c-.07.13-.14.11-.14,0V24.84a.67.67,0,0,0-.2-.44l-1.76-1.54c-.11-.1-.08-.17.07-.17h2.45a.36.36,0,0,0,.33-.25Z"/><path class="d" d="M163.93,10.22c0-.07,0-.06.05,0l.12,2.08a.19.19,0,0,0,.13.16l1.28.32c.07,0,.08.06,0,.1l-1.06.68a.23.23,0,0,0-.09.2l.16,1.61c0,.07,0,.08-.06,0L163.57,14a.09.09,0,0,0-.12,0h0l-1,1.3c0,.06-.07,0-.06,0l.23-2a.32.32,0,0,0-.07-.22l-.75-.83v-.08l1.16.16a.17.17,0,0,0,.17-.1Z"/><path class="d" d="M48.75,4.83c0-.12.07-.12.1,0l.73,3.65a.33.33,0,0,0,.27.25L52.2,9c.12,0,.15.09,0,.17l-1.7,1.47a.41.41,0,0,0-.12.37l.68,2.8c0,.12,0,.14-.1.05l-2-2.17a.15.15,0,0,0-.2-.06l-.06.06-1.42,2.53c-.06.11-.11.1-.12,0l-.1-3.64a.57.57,0,0,0-.18-.37L45.46,8.92c-.1-.08-.07-.15,0-.15h2.08a.3.3,0,0,0,.28-.22Z"/><path class="d" d="M114.78,8.83c0-.07,0-.06.05,0l.13,2.1a.19.19,0,0,0,.13.16l1.29.33c.07,0,.08.06,0,.1l-1.06.69a.23.23,0,0,0-.09.2L115.4,14c0,.07,0,.08-.06,0l-.93-1.37a.09.09,0,0,0-.12,0h0l-1,1.31c0,.06-.07,0-.06,0l.23-2a.33.33,0,0,0-.07-.22l-.75-.83v-.08l1.17.16a.17.17,0,0,0,.17-.1Z"/><path class="d" d="M124.78,5.53c0-.09.07-.09.08,0l.14,3a.26.26,0,0,0,.18.22l1.81.46c.1,0,.11.09,0,.14l-1.49,1a.32.32,0,0,0-.13.28l.23,2.27c0,.1,0,.11-.08,0L124.21,11a.12.12,0,0,0-.16,0h0l-1.39,1.83c-.06.08-.1.06-.09,0l.32-2.87a.45.45,0,0,0-.1-.31l-1.06-1.17c-.07-.07,0-.12.06-.11l1.64.22a.24.24,0,0,0,.24-.14Z"/><path class="d" d="M129.18,13.25c.06-.14.11-.13.12,0l.27,4.58a.41.41,0,0,0,.29.35l2.82.71c.15,0,.16.14,0,.22l-2.32,1.5a.5.5,0,0,0-.21.43l.35,3.53c0,.15,0,.17-.13,0l-2-3a.19.19,0,0,0-.33,0l-2.16,2.85c-.09.12-.15.1-.14-.06l.5-4.46a.71.71,0,0,0-.16-.48l-1.64-1.82c-.1-.11-.06-.19.09-.17l2.54.34a.37.37,0,0,0,.38-.22Z"/><path class="d" d="M137.35,30.25c0-.07,0-.06.05,0l.13,2.1a.19.19,0,0,0,.13.16l1.29.33c.07,0,.08.06,0,.1l-1.06.69a.23.23,0,0,0-.09.2l.16,1.62c0,.07,0,.08-.06,0L137,34.1a.09.09,0,0,0-.12,0h0l-1,1.31c0,.06-.07,0-.06,0l.23-2a.33.33,0,0,0-.07-.22l-.75-.83v-.08l1.17.16a.17.17,0,0,0,.17-.1Z"/><path class="d" d="M2.19,42.87h0L2.37,45a.19.19,0,0,0,.13.16l1.29.33c.07,0,.08.06,0,.1l-1.06.69a.23.23,0,0,0-.09.2L2.8,48.1c0,.07,0,.08-.06,0l-.93-1.37a.09.09,0,0,0-.12,0h0L.68,48c0,.06-.07,0-.06,0l.23-2a.33.33,0,0,0-.07-.22L0,44.9v-.08L1.23,45a.17.17,0,0,0,.17-.1Z"/><path class="a" d="M32.33,26.39c-.56-1.64,1-2.34,3.06-3s3.71-1.1,4.27.54S39,27.43,37,28.11s-4.11-.08-4.67-1.72"/><path class="a" d="M24.27,27.14c-.61-1.8,3.67-4.88,9.56-6.88S45,18.1,45.62,19.9s-3.67,4.88-9.56,6.88-11.17,2.16-11.78.36"/><path class="e" d="M38.45,20.35c.56,1.64-1,2.34-3.06,3s-3.71,1.1-4.27-.54.63-3.52,2.66-4.21,4.11.08,4.67,1.72"/><path class="f" d="M38.45,20.35c.56,1.64-1,2.34-3.06,3s-3.71,1.1-4.27-.54.63-3.52,2.66-4.21,4.11.08,4.67,1.72Z"/><path class="a" d="M190.58,21.74c0-.43.6-.69,1.35-.75,1.4-.1,1.77,5,2,7.75a1.27,1.27,0,0,0,.06.47c.33,4.69.69,11.25-3.2,11.52-1.55.11-2.8-.61-2.9-2,0-.42.12-.81.67-.85.2,0,1.21,1.17,2.18,1.1,1.7-.12,1.53-3.89,1.33-6.76A82.51,82.51,0,0,0,190.62,22,.87.87,0,0,1,190.58,21.74Zm6,12.44c-.2-2.82.33-5.68,3.7-5.92,2.39-.17,3.47,1.91,3.61,3.93.18,2.52-.83,5.62-3.63,5.82-2,.13-3.54-1.59-3.7-3.84Zm5.7-2c-.07-1-.67-2.11-1.7-2-2,.14-2.1,2.28-2,3.72s.66,2.31,1.68,2.24c1.74-.14,2.11-2.42,2-4Zm6.82,3.63a2.41,2.41,0,0,0,.45.67.47.47,0,0,1,.12.27.74.74,0,0,1-.58.87h-.16a1.68,1.68,0,0,1-.79-.17c-1.31-.48-2-4.87-2.19-7-.09-1.25.05-2.46,1-2.52.7,0,1.21.07,1.32.56a3.64,3.64,0,0,1,.09.52v2.1a16.16,16.16,0,0,0,.72,4.66ZM208.61,24a1.4,1.4,0,0,1-1.25,1.14A1.26,1.26,0,0,1,206.25,24c0-.52.26-1.32.93-1.37a1.42,1.42,0,0,1,1.41,1.1Zm5.21,8.13.06.92c.09.55.1.77.28.76a11,11,0,0,0,.54-1.62c.88-2.49,1.91-3.92,3.15-4,2.49-.17,1.81,4.71,3.61,6.41.24.23.65.41.68.73,0,.65-.44.88-.94.92a2.14,2.14,0,0,1-.92-.19c-1.32-.56-1.76-2.31-2.17-3.81-.3-1.08-.8-1.45-1.08-1.43-.75,0-1.5,3-1.88,4-.32.8-.52,1.89-1.12,1.93a1.21,1.21,0,0,1-1.23-.39,11.37,11.37,0,0,1-1.24-4.45c-.19-2.67,0-4,1.07-4.08A1.28,1.28,0,0,1,213.94,29a.83.83,0,0,1-.08.36,8.36,8.36,0,0,0-.05,2.78Zm14.87-.21c-.2-2.82.33-5.68,3.7-5.92,2.39-.17,3.47,1.91,3.61,3.93.18,2.52-.83,5.62-3.63,5.82-2,.14-3.53-1.58-3.69-3.82Zm5.7-2c-.07-1-.67-2.11-1.7-2-2,.14-2.1,2.28-2,3.72s.66,2.31,1.68,2.24c1.72-.18,2.12-2.41,2-4Zm10.11-1.68V28c-.06-.82-.33-1.16-.37-1.68s.75-.78,1.27-.82c.77,0,1,.38,1.07,1.33v1c0,2.33-1.68,7.08-4.13,7.25-1.3.09-2.53-1.38-3.37-3a13.58,13.58,0,0,1-1.37-4.16c-.09-1.27.07-1.86.87-1.92a1.7,1.7,0,0,1,1.92,1.67V29.6c.16.79,1.18,3.65,2.3,3.57s1.83-3.35,1.8-5Zm11,3.47c.23-.32.29-.57.61-.59s.53.39.55.74c.09,1.27-2.09,2.75-4,2.88-3,.21-4.44-2.27-4.62-4.74-.2-2.82,1.28-5.33,4.12-5.53a2.24,2.24,0,0,1,2.49,2v0h0a4.29,4.29,0,0,1-.47,2.21,8.54,8.54,0,0,1-3.49,3.18A2.45,2.45,0,0,0,253,33.31a3.26,3.26,0,0,0,2.45-1.63ZM252,26.34c-1.7.12-1.87,2.31-1.79,3.46a5,5,0,0,0,.11.84,4,4,0,0,0,2.61-3.57.83.83,0,0,0-.89-.76H252Zm11.17-.41c-1.47.1-2.27,1.89-2.51,3.16a5.62,5.62,0,0,0-.11,1.61,1.21,1.21,0,0,0,0,.42l.06.82c.1,1.37-.25,1.87-1,1.92h-.22c-.63,0-.69-.58-.73-1.15a26,26,0,0,0-.88-5.37c-.13-.47-.24-1-.39-1.63a2.21,2.21,0,0,1,0-.38,1,1,0,0,1,.79-.56c1.2-.08,1.5,1.4,1.66,2.24.39-.8.67-1.22.8-1.46a3.49,3.49,0,0,1,2.59-1.61h.25A1.47,1.47,0,0,1,265,25.08c0,.5-.12,1.19-.64,1.22-.07,0-.26-.16-.29-.18a1,1,0,0,0-.77-.22Zm11.76,7.55c-1,.07-1.3-1.39-1.44-1.93A58.45,58.45,0,0,1,272,21.71c-.09-1.32-.06-2.65,1.24-3a2.84,2.84,0,0,1,.59-.12c.45,0,.73.1.78.42a.93.93,0,0,1,0,.3,39.83,39.83,0,0,0-.08,5.94c.07,1,.2,2.14.33,3.26.15,1.37.62,3.84.72,4.23,0,.67-.23.69-.67.72Zm14.51-9.23c.23,3.27-.83,8.15-5.1,8.45-3,.21-5.45-2.65-5.76-7.19-.24-3.44.66-7.76,4.67-8,1.12-.08,2.08.38,2.16,1.55a.49.49,0,0,1-.39.57h-.1a3.75,3.75,0,0,0-1.56-.44c-1.37.1-2.91,1.46-2.62,5.57.14,2,.91,6.53,3.78,6.33,2.64-.18,3.1-4,3-6.22a10.31,10.31,0,0,0-1.09-4.43,1.84,1.84,0,0,1-.27-.58c0-.45.14-1.29.51-1.31,1.29-.17,2.6,3,2.78,5.67Zm7.74.94c-.13-1.92.17-3.72,1.26-3.8.72,0,1.5.3,1.54.89a3.68,3.68,0,0,1-.15.76,10.85,10.85,0,0,0-.41,2.74c0,.5.35,3.23.92,3.19.22,0,.62-.82.85-1.46.53-1.44.87-2.59,1.37-3.75s1.14-1.93,2.07-2c1.2-.08,1.78,2.58,1.93,3.27s.24.86.28,1.18c.09.55.22,1,.37,1s.42-.41.66-1c.45-1.06,1.36-3.1,1.94-4.09a1.72,1.72,0,0,1,1.28-1,1.09,1.09,0,0,1,1.3,1.06c.1,1.4.08,1.57.1,1.75a6.93,6.93,0,0,0,1.32,4.22c.21.21.6.38.63.71a.82.82,0,0,1-.72.91h-.14a2.36,2.36,0,0,1-1-.18c-1.42-.63-1.92-2.77-2.11-4.36-.07-.6-.2-1-.37-1s-.4.43-.52.74c-.54,1.19-1,2.32-1.39,3.45-.3.77-.64,1.62-1.21,1.66a1.34,1.34,0,0,1-1-.28,8.31,8.31,0,0,1-1.14-3c-.32-1.38-.6-2.19-.93-2.16s-1.1,1.5-1.52,2.66c-.25.69-.47,1.19-.62,1.57-.49,1.21-1.09,2.36-1.84,2.41a2.32,2.32,0,0,1-1-.23c-.47-.24-.85-1.07-1.2-2.45a15.58,15.58,0,0,1-.59-3.49Zm22,2.92a2.46,2.46,0,0,0,.45.67.46.46,0,0,1,.12.27.74.74,0,0,1-.58.87H319a1.67,1.67,0,0,1-.79-.17c-1.31-.48-2-4.87-2.19-7-.09-1.25,0-2.46,1-2.52.7,0,1.21.07,1.32.56a3.79,3.79,0,0,1,.09.52v2.1a16.12,16.12,0,0,0,.7,4.66Zm-.47-11.77a1.4,1.4,0,0,1-1.25,1.14,1.26,1.26,0,0,1-1.11-1.15c0-.52.26-1.32.93-1.37a1.42,1.42,0,0,1,1.41,1.1ZM325.31,29c0,.4-.46.63-1,.67a1.52,1.52,0,0,1-1.28-.76c-1.14-2-1.5-6-1.66-8.38-.12-1.65-.14-3.5-.14-4.5,0-1.35,0-3,1.16-3.11.65,0,1.37.23,1.42.65a1.09,1.09,0,0,1,0,.3,57,57,0,0,0-.17,8,10.89,10.89,0,0,0,.11,1.27c.17,1.69.46,4,1.24,5.22A1.29,1.29,0,0,1,325.31,29Zm5.6-.59c0,.4-.58.69-1.08.73-2,.14-2.51-6.21-2.7-8.93a36.8,36.8,0,0,1-.1-3.9c.06-1.66.31-3.4,1.26-3.47a1.18,1.18,0,0,1,1.22.67,1.09,1.09,0,0,1,0,.3,50.81,50.81,0,0,0-.14,7c0,.5.09,1,.13,1.54v.25c.22,1.71.43,4,1.09,5.19a1.24,1.24,0,0,1,.31.57Zm4.22-4.53a12.24,12.24,0,0,0,.59,3.12,1.72,1.72,0,0,0,.42.62.46.46,0,0,1,.12.27.79.79,0,0,1-.66.9h-.1a1.89,1.89,0,0,1-1.68-1.16,18.79,18.79,0,0,1-1-5l-.06-.8c-.08-1.15,0-2.8.9-2.87H334a1.22,1.22,0,0,1,1.11,1.23v3.63Zm.48-9.33a1.58,1.58,0,0,1-1.21,1.29h-.25a1,1,0,0,1-.92-1,1.5,1.5,0,0,1,1-1.57h.1a1.24,1.24,0,0,1,1.29,1Zm2.71,9.76c-.2-2.82.33-5.68,3.7-5.92,2.39-.17,3.47,1.91,3.61,3.93.18,2.52-.83,5.62-3.63,5.82-2,.09-3.53-1.63-3.69-3.88Zm5.7-2c-.07-1-.67-2.11-1.7-2-2,.14-2.1,2.28-2,3.72s.66,2.31,1.68,2.24c1.72-.27,2.12-2.46,2-4Zm6,.38.06.92c.09.54.1.77.28.76a11,11,0,0,0,.54-1.62c.88-2.49,1.91-3.92,3.15-4,2.49-.17,1.81,4.71,3.61,6.41.24.23.65.41.68.73,0,.65-.44.88-.94.92a2.13,2.13,0,0,1-.92-.19c-1.32-.56-1.76-2.31-2.17-3.81-.3-1.08-.8-1.45-1.08-1.43-.75,0-1.5,3-1.88,4-.32.8-.52,1.89-1.12,1.93a1.21,1.21,0,0,1-1.23-.39,11.37,11.37,0,0,1-1.24-4.45c-.19-2.67,0-4,1.07-4.08a1.28,1.28,0,0,1,1.31,1.16.85.85,0,0,1-.08.36,8.39,8.39,0,0,0-.06,2.7Zm-171.37,38v-.12c-.15-2.09,2.13-3.28,4.09-3.54a1.15,1.15,0,0,1,1.33,1.11c.06.82-3.5.77-3.39,2.34.06.87,2.61,1.8,3.23,2.13a2.14,2.14,0,0,1,1.3,1.76c.15,2.09-3.22,3.33-4.84,3.45-.67,0-1.51,0-1.56-.77,0-.27.06-.53.31-.55s.43,0,.63,0c1-.07,3.23-.73,3.14-2s-3.94-1.43-4.21-3.84Zm8.29.27c-.13-1.92.17-3.72,1.26-3.8.72,0,1.5.3,1.54.89a3.71,3.71,0,0,1-.15.76,10.85,10.85,0,0,0-.41,2.74c0,.5.35,3.23.92,3.19.22,0,.62-.82.85-1.46.53-1.44.87-2.59,1.37-3.75s1.14-1.93,2.07-2c1.2-.08,1.78,2.58,1.93,3.27s.24.86.28,1.18c.09.55.22,1,.37,1s.42-.41.66-1c.45-1.06,1.36-3.1,1.94-4.09a1.72,1.72,0,0,1,1.28-1,1.09,1.09,0,0,1,1.3,1.06c.1,1.4.08,1.57.1,1.75a6.93,6.93,0,0,0,1.32,4.3c.22.21.6.38.63.71a.82.82,0,0,1-.72.91h-.14a2.35,2.35,0,0,1-1-.18c-1.42-.63-1.92-2.77-2.11-4.36-.07-.6-.2-1-.37-1s-.4.43-.52.74c-.54,1.19-1,2.32-1.39,3.45-.3.77-.64,1.62-1.21,1.66a1.34,1.34,0,0,1-1-.28,8.3,8.3,0,0,1-1.14-3c-.32-1.38-.6-2.19-.93-2.16s-1.1,1.5-1.52,2.66c-.25.7-.47,1.19-.62,1.57-.49,1.21-1.09,2.36-1.84,2.41a2.32,2.32,0,0,1-1-.23c-.47-.24-.85-1.07-1.2-2.45A15.58,15.58,0,0,1,187,61Zm24.84-4.17a1.67,1.67,0,0,1,.28.76.93.93,0,0,1-.69.9c-.08,0-.21-.14-.4-.4s-.38-.4-1-.36c-1.5.1-2.15,1.9-2,3.67.05.77.2,2.19,1.5,2.1,1.5-.1,2.41-2.87,2.76-4.23s.72-1.9,1.09-1.93,1.15-.08,1.21.82a32.55,32.55,0,0,0,.38,3.33,8.58,8.58,0,0,0,.74,2.28,1.38,1.38,0,0,1,.18.46.81.81,0,0,1-.75.75c-.95.07-1.9-1.72-2.18-4.28-.76,2.08-2,4.38-3.77,4.5-2,.14-3.14-1.58-3.29-3.63-.18-2.64.74-5.49,3.74-5.7a2.21,2.21,0,0,1,2.23.94Zm9.42,7.53c0,.4-.46.63-1,.67a1.52,1.52,0,0,1-1.28-.76c-1.14-2-1.5-6-1.66-8.38-.12-1.65-.14-3.5-.14-4.5,0-1.35,0-3,1.16-3.11.65,0,1.37.23,1.42.65a1.09,1.09,0,0,1,0,.3,56.87,56.87,0,0,0-.17,8,10.88,10.88,0,0,0,.11,1.27c.17,1.69.46,4,1.24,5.22a1.3,1.3,0,0,1,.35.62Zm5.6-.59c0,.4-.58.69-1.08.73-2,.14-2.51-6.21-2.7-8.93a37.08,37.08,0,0,1-.1-3.9c.06-1.66.31-3.4,1.26-3.47a1.18,1.18,0,0,1,1.22.67,1.13,1.13,0,0,1,0,.3,50.83,50.83,0,0,0-.14,7c0,.5.1,1,.13,1.54v.25c.22,1.71.43,4,1.09,5.19a1.25,1.25,0,0,1,.35.6Zm9-8a6.6,6.6,0,0,1,3.2-1.45h.13c2.07-.14,3.22,1,3.37,3.07.17,2.47-1.83,5.69-4.57,5.88-.47,0-.59-.21-.62-.61a.62.62,0,0,1,0-.2c1.75-1.08,3.2-2.58,3-4.82a1.44,1.44,0,0,0-1.4-1.47h-.16a5.32,5.32,0,0,0-2.9,1.23c.17,2,.68,5,.74,6,0,.27-.07.46-.49.49-1.75.12-2.16-5.76-2.37-8.78-.15-2.2-.26-3.72-.24-6.6,0-.55,0-1.35.83-1.41a1.43,1.43,0,0,1,1.38,1.48v.05c.11,1.52-.11,3.46,0,5,.08.7.11,1.41.16,2.12Zm11.74,7c-2.37.17-3-3-3.28-4.68,0-.3-.09-.87-.11-1.22-.09-1.25,0-2.55,1.22-3a2.13,2.13,0,0,1,.57-.14c.4,0,.57.31.61.88.09,1.3-.13,2.44,0,3.61s.5,2.45,1.49,2.38,2-2.52,2.73-5.33c.08-1.38.42-1.53.87-1.56s1.32-.09,1.39.91v.72a24.47,24.47,0,0,0,.38,3.23,8.54,8.54,0,0,0,.85,2.45,2.55,2.55,0,0,1,.24.56.82.82,0,0,1-.77.83.5.5,0,0,1-.36-.08c-1-.56-1.92-2.07-2.21-4.76-.88,3.59-2,5.06-3.55,5.18Zm8.7-7.42v-.12c-.15-2.09,2.13-3.28,4.09-3.54a1.15,1.15,0,0,1,1.33,1.11c.06.82-3.5.77-3.39,2.34.06.87,2.61,1.8,3.23,2.13A2.14,2.14,0,0,1,262.8,59c.15,2.09-3.22,3.33-4.85,3.45-.67,0-1.51,0-1.56-.77,0-.27.06-.53.31-.55s.43,0,.63,0c1-.07,3.23-.73,3.14-2s-3.89-1.43-4.16-3.84Zm11.37,4.52a2.42,2.42,0,0,0,.45.67.47.47,0,0,1,.12.27.74.74,0,0,1-.58.87h-.16a1.67,1.67,0,0,1-.79-.17c-1.31-.48-2-4.87-2.19-7-.09-1.25,0-2.46,1-2.52.7,0,1.21.07,1.32.56a3.51,3.51,0,0,1,.09.52v2.1a16.2,16.2,0,0,0,.81,4.66ZM267.21,48A1.4,1.4,0,0,1,266,49.14,1.26,1.26,0,0,1,264.89,48c0-.52.26-1.32.93-1.37a1.42,1.42,0,0,1,1.41,1.1Zm8.74,6.75c-.92.06-2,2.88-2.39,3.8l-.14.44a4.78,4.78,0,0,0-.16,1.29.69.69,0,0,1-.57.74h-.4a1.7,1.7,0,0,1-.69-.23c-1-.53-1.33-3.61-1.41-4.81-.19-2.67.16-4.52,1.23-4.6a1.45,1.45,0,0,1,1.48,1.15.83.83,0,0,1-.08.36c0,.08-.06.18-.4,1.48a10.7,10.7,0,0,0-.08,2.46A6.14,6.14,0,0,0,272.5,58c.6-1.77,2-5.78,4.32-5.94.65,0,1.23.34,1.65,1.36a26.61,26.61,0,0,1,1,3.51,5.16,5.16,0,0,0,.91,1.84c.22.21.6.38.63.71a.8.8,0,0,1-.7.89h-.14a2.33,2.33,0,0,1-1-.18c-1.08-.47-1.65-2.11-1.92-3.45s-.78-2-1.3-2Zm13.69,2.63c.23-.32.29-.57.61-.59s.53.39.55.74c.09,1.27-2.09,2.75-4,2.88-3,.21-4.44-2.27-4.62-4.74-.2-2.82,1.28-5.33,4.12-5.53a2.24,2.24,0,0,1,2.49,2v0h0a4.28,4.28,0,0,1-.47,2.21,8.53,8.53,0,0,1-3.49,3.17A2.45,2.45,0,0,0,287.2,59a3.25,3.25,0,0,0,2.44-1.64ZM286.13,52c-1.7.12-1.87,2.31-1.79,3.46a5.32,5.32,0,0,0,.11.85,4,4,0,0,0,2.61-3.57.83.83,0,0,0-.91-.74Zm5.72.75v-.12c-.15-2.09,2.13-3.28,4.09-3.54a1.15,1.15,0,0,1,1.33,1.11c.06.82-3.5.77-3.39,2.34.06.87,2.61,1.8,3.23,2.13a2.14,2.14,0,0,1,1.3,1.76c.15,2.09-3.22,3.33-4.84,3.45-.67,0-1.51,0-1.56-.77,0-.27.06-.53.31-.55s.43,0,.63,0c1-.07,3.23-.73,3.14-2S292.12,55.16,291.85,52.75Zm8.9,5.06H302c1.15-.08,2.38-.39,2.3-1.46S300.21,54.42,300,52v-.15c0-2.15,2.54-3.16,4.11-3.27h.3c.7,0,1,.18,1,.68a3.51,3.51,0,0,1,0,.45c-.11,1-3.29.53-3.18,2.15.06.8,1.09,1.33,2,1.92,1.23.82,2.34,1.29,2.43,2.49v.13c0,1.73-2.54,2.73-4.08,2.92h-.25a8.43,8.43,0,0,1-1.25,0,1.26,1.26,0,0,1-1-1c0-.22.12-.43.52-.46Zm12.74-3.75c-.2-2.82.33-5.68,3.7-5.92,2.39-.17,3.47,1.91,3.61,3.93.18,2.52-.83,5.62-3.63,5.82-2,.11-3.52-1.58-3.68-3.82Zm5.7-2c-.07-1-.67-2.11-1.7-2-2,.14-2.1,2.28-2,3.72s.66,2.31,1.68,2.24c1.73-.18,2.13-2.41,2-4Zm4.37-3.86c.4,0,1.42.23,1.46.88a4.51,4.51,0,0,1,0,.68,6.61,6.61,0,0,0-.12,1.54c.06.87.64,4.19,1.64,4.12a1,1,0,0,0,.51-.29,5.24,5.24,0,0,0,1.25-1.89A4.51,4.51,0,0,1,328,52c0-.77.15-1.49,1-1.55.67,0,.78.35.81.89v.8a2,2,0,0,0,.08.37c.14.57,1.42,2.36,2,2.31,1-.07,1.22-2.29,1.11-3.83-.09-1.32-.83-2.22-.89-3.07a.67.67,0,0,1,.5-.8h.17a1.76,1.76,0,0,1,2,1.9c.15,2.19.28,7.65-2.91,7.87-1.3.09-2.77-2.39-2.89-2.63-.36,1-1.29,3-2.64,3.09-2.77.19-3.67-5.53-3.76-6.9-.08-1-.08-2.18,1-2.25Zm19.3,1.88c-.92.06-2,2.88-2.39,3.8l-.14.44a4.79,4.79,0,0,0-.16,1.29.69.69,0,0,1-.58.74h-.4a1.68,1.68,0,0,1-.69-.23c-1-.53-1.33-3.62-1.41-4.81-.19-2.67.16-4.52,1.23-4.59a1.45,1.45,0,0,1,1.48,1.15.84.84,0,0,1-.08.36c0,.08-.06.18-.4,1.48a10.69,10.69,0,0,0-.08,2.46,6.15,6.15,0,0,0,.16,1.22c.6-1.77,2-5.78,4.32-5.94.65,0,1.23.34,1.65,1.36a26.64,26.64,0,0,1,1,3.51,5.12,5.12,0,0,0,.91,1.84c.22.21.6.38.63.71a.8.8,0,0,1-.7.89h-.14a2.33,2.33,0,0,1-1-.18c-1.09-.47-1.65-2.11-1.92-3.45s-.77-2.13-1.29-2.07Zm13.69,2.63c.23-.32.29-.57.61-.59s.53.39.55.74c.09,1.27-2.09,2.75-4,2.88-3,.21-4.44-2.27-4.62-4.74-.2-2.82,1.28-5.33,4.12-5.53a2.24,2.24,0,0,1,2.49,2v0h0a4.29,4.29,0,0,1-.47,2.21,8.54,8.54,0,0,1-3.49,3.17,2.44,2.44,0,0,0,2.36,1.51,3.26,3.26,0,0,0,2.45-1.68ZM353,47.32c-1.7.12-1.87,2.31-1.79,3.46a5,5,0,0,0,.11.84A4,4,0,0,0,353.93,48a.83.83,0,0,0-.92-.73h0ZM361.65,50a8,8,0,0,0-.11,2.06v.7c.11,1.57-.31,2-1.23,2.07-.62,0-.69-.5-.73-1.08a23.12,23.12,0,0,0-.76-5.21,16.19,16.19,0,0,1-.36-1.6,1.11,1.11,0,0,1,0-.38,1,1,0,0,1,.83-.63c.9-.06,1.15.37,1.55,2.1a13.25,13.25,0,0,1,.84-1.54,3.7,3.7,0,0,1,2.75-1.9,1.28,1.28,0,0,1,1.45,1c0,.55-.19,1.24-.71,1.28l-.24-.16a1.07,1.07,0,0,0-.76-.15C362.7,46.74,361.93,48.7,361.65,50Zm5.88,3.1h1.28c1.15-.08,2.38-.39,2.3-1.46s-4.12-1.94-4.29-4.36v-.15c0-2.15,2.54-3.16,4.11-3.27h.3c.7,0,1,.18,1,.68a3.51,3.51,0,0,1,0,.45c-.11,1-3.29.53-3.18,2.15.06.8,1.09,1.33,2,1.92,1.23.82,2.34,1.29,2.43,2.49v.13c0,1.73-2.54,2.73-4.08,2.92h-.25a8.41,8.41,0,0,1-1.25,0,1.26,1.26,0,0,1-1-1c0-.22.12-.44.52-.46ZM205.62,93.66c-2.37.17-3-2.95-3.28-4.68,0-.3-.09-.87-.11-1.22-.09-1.25,0-2.55,1.22-3a2.13,2.13,0,0,1,.57-.14c.4,0,.57.31.61.88.09,1.3-.13,2.44,0,3.61s.5,2.44,1.49,2.38,2-2.52,2.73-5.33c.08-1.38.42-1.53.87-1.57s1.32-.09,1.39.91l.05.72a24.5,24.5,0,0,0,.38,3.23,8.55,8.55,0,0,0,.85,2.45,2.53,2.53,0,0,1,.24.56.82.82,0,0,1-.77.83.49.49,0,0,1-.36-.08c-1-.56-1.92-2.07-2.21-4.76C208.29,92.07,207.21,93.55,205.62,93.66Zm8.7-7.42v-.12c-.15-2.09,2.13-3.28,4.09-3.54a1.15,1.15,0,0,1,1.33,1.11c.06.82-3.5.77-3.39,2.34.06.87,2.61,1.8,3.23,2.13a2.14,2.14,0,0,1,1.3,1.76c.15,2.09-3.22,3.33-4.84,3.45-.67,0-1.51,0-1.56-.77,0-.27.06-.53.31-.55s.43,0,.63,0c1-.07,3.23-.73,3.14-2S214.56,88.65,214.32,86.24Zm11.37,4.52a2.46,2.46,0,0,0,.45.67.45.45,0,0,1,.12.27.74.74,0,0,1-.58.87h-.16a1.67,1.67,0,0,1-.79-.17c-1.31-.48-2-4.87-2.19-7-.09-1.25.05-2.46,1-2.52.7,0,1.21.07,1.32.56a3.78,3.78,0,0,1,.09.52v2.11a16.12,16.12,0,0,0,.74,4.67ZM225.22,79A1.4,1.4,0,0,1,224,80.14,1.26,1.26,0,0,1,222.89,79c0-.52.26-1.32.93-1.37a1.42,1.42,0,0,1,1.41,1.1ZM234,85.74c-.92.06-2.05,2.88-2.39,3.8l-.14.44a4.83,4.83,0,0,0-.16,1.29.69.69,0,0,1-.57.74h-.4a1.69,1.69,0,0,1-.69-.23c-1-.53-1.33-3.61-1.41-4.81-.19-2.67.16-4.52,1.23-4.6a1.45,1.45,0,0,1,1.48,1.15.85.85,0,0,1-.08.36c0,.08-.06.18-.4,1.48a10.7,10.7,0,0,0-.08,2.46,6.14,6.14,0,0,0,.16,1.22c.6-1.77,2-5.78,4.32-5.94.65,0,1.23.34,1.65,1.36a26.61,26.61,0,0,1,1,3.51,5.16,5.16,0,0,0,.91,1.84c.22.21.6.38.63.71a.8.8,0,0,1-.7.89h-.14a2.35,2.35,0,0,1-1-.18c-1.09-.47-1.65-2.11-1.92-3.45S234.48,85.7,234,85.74Zm13-.28c.55,0,.8.72.81.82l.28,2.24a4.51,4.51,0,0,0,.06.55c.06.55.13,1.22.19,2,.2,2.87.07,6.68-2.48,6.86-1,.07-3.62-.6-3.72-2,0-.5.14-.91.44-.93.65,0,1.57,1.27,3,1.17,1-.07,1.16-2,1-3.93-.08-1.15-.26-2.31-.37-3.93v-.15a3.34,3.34,0,0,1-2.78,2.2c-1.47.1-3-1.09-3.23-3.86a4.4,4.4,0,0,1,3.72-5H244c1.37-.1,3.25,1,3.35,2.35a1,1,0,0,1-1,1h-.05c-.27,0-.43-.09-.64-.53-.44-1-1-1.39-1.5-1.35-1,.07-1.89,1.66-1.77,3.28v.17c.17,1.37.67,2,1.44,1.93,1.17-.08,1.51-.66,2.5-2.55a.78.78,0,0,1,.6-.34Zm20.2-13.29a.91.91,0,0,1,.8.83c0,.6-.15,1.49-.47,1.51,0,0-1-.43-4.47-.19a28.67,28.67,0,0,0-7,1.54,2.35,2.35,0,0,1-1,.32c-.28,0-.45-.39-.48-.82a.67.67,0,0,1,.33-.62c1-.64,3.39-2.34,9.7-2.78a7.47,7.47,0,0,1,2.55.22Zm-7.06,11.54c.3,4.26.54,5.27.62,6.32,0,.15.08.34.09.52s-.07.5-.56.54a1.16,1.16,0,0,1-.28,0c-.28,0-.47-.34-.66-.78A51.36,51.36,0,0,1,258,84l-1.17.41a1.07,1.07,0,0,1-.25.07c-.17,0-.26-.11-.28-.41,0-1,.45-1.11,1.13-1.38a2.2,2.2,0,0,0,.37-.15c-.11-.82-.19-1.62-.24-2.31-.08-1.2-.26-3.76,1.16-3.86.67,0,1.19.14,1.27.56a.58.58,0,0,1,0,.23c-.11,1.33-.11,3.06-.08,4.62a20.73,20.73,0,0,1,4.74-1,.55.55,0,0,1,.64.58c0,.58-.19,1.29-.66,1.32h-.8a22.39,22.39,0,0,0-3.83.69Zm10.75.75a8,8,0,0,0-.11,2.06v.7c.11,1.57-.31,2-1.23,2.07-.62,0-.69-.5-.73-1.08A23,23,0,0,0,268,83a16.29,16.29,0,0,1-.36-1.6,1.1,1.1,0,0,1,0-.38,1,1,0,0,1,.83-.63c.9-.06,1.15.37,1.55,2.1a12.9,12.9,0,0,1,.84-1.54,3.69,3.69,0,0,1,2.75-1.9,1.28,1.28,0,0,1,1.45,1c0,.55-.19,1.24-.71,1.28l-.24-.16a1.07,1.07,0,0,0-.76-.15c-1.49.14-2.26,2.1-2.54,3.45Zm12.28,1.42c.23-.32.29-.57.61-.59s.53.39.55.74c.09,1.27-2.09,2.75-4,2.88-3,.21-4.44-2.27-4.62-4.74-.2-2.82,1.28-5.33,4.12-5.53a2.24,2.24,0,0,1,2.49,2v0h0a4.3,4.3,0,0,1-.47,2.21A8.54,8.54,0,0,1,278.29,86a2.45,2.45,0,0,0,2.36,1.51,3.26,3.26,0,0,0,2.44-1.62Zm-3.51-5.37c-1.7.12-1.87,2.31-1.79,3.46a5,5,0,0,0,.11.84,4,4,0,0,0,2.61-3.57.83.83,0,0,0-.91-.74h0Zm5.72.75v-.12c-.15-2.09,2.13-3.28,4.09-3.54a1.15,1.15,0,0,1,1.33,1.11c.06.82-3.5.77-3.39,2.34.06.87,2.61,1.8,3.23,2.13a2.14,2.14,0,0,1,1.3,1.76C292,87,288.62,88.28,287,88.4c-.67,0-1.51,0-1.56-.77,0-.27.06-.53.31-.55s.43,0,.63,0c1-.07,3.23-.73,3.14-2s-4-1.39-4.22-3.8Zm15.86,2.55-.6-2.56a.88.88,0,0,0-.88-.69c-.22,0-.48.36-.7.68-.46.66-.66,1.67-2,4.75-.3.7-.76,1.61-1.54,1.66a1.08,1.08,0,0,1-.94-.84,34.22,34.22,0,0,1-1.3-8.18c-.11-1.6-.14-3.12-.18-4.67,0-1.3,0-2.58.44-2.61,1.37-.1,1.79.5,1.86,1.45a3.77,3.77,0,0,1,0,.53,61.74,61.74,0,0,0,0,7.21c.08,1.07.29,3.44.48,4.3,0,.12.06.2.11.19s.14-.16.18-.34A26,26,0,0,1,298,80.06a3.43,3.43,0,0,1,2.58-1.78c1.57-.11,2.06,1.56,2.28,2.9a29.7,29.7,0,0,0,.66,3.31,9.5,9.5,0,0,0,.57,1.34,3.1,3.1,0,0,1,.24.51.79.79,0,0,1-.71.86h-.06a.7.7,0,0,1-.3,0c-1.24-.46-1.65-2-2.08-3.38Zm7.15,2.31c3.19-.22,7.5-1.35,7.22-5.34-.29-2-1.76-2.28-4-2.12-.45,0-1.35.4-1.67.42a1.06,1.06,0,0,1-.41-.07,8.91,8.91,0,0,0,.11,1.2c.13,1.09.41,2.28.62,3.44,0,.25.17,1,.23,1.46a.53.53,0,0,1,0,.15c0,.13-.06.28-.5.31-.72.05-1.15-.72-1.38-1.51a42.21,42.21,0,0,1-1.13-6.46c-.06-.47-.09-.95-.12-1.42-.14-2,0-3.78,1.26-3.87.65,0,1.21.17,1.23.44a24.42,24.42,0,0,0-.41,4.86,3,3,0,0,0,1.09-.5c1.17-.83,2.77-2.25,2.83-4.38-.16-1.62-1.62-1.67-3-1.57a9.6,9.6,0,0,0-3.72.84,9.83,9.83,0,0,0-2.44,1.35.73.73,0,0,1-.5-.72c0-.71.5-1.51,2.9-2.31a18,18,0,0,1,4.34-1c1.92-.13,4.6.15,4.76,2.5a6.62,6.62,0,0,1-3.75,5.5,6.45,6.45,0,0,1,.7-.07c2.22-.16,5.1.52,5.29,3.26.35,5-5.59,6.75-9.85,7.05-.85.06-1.86,0-1.92-.89,0-.47.18-.94.46-1s.34.15,1,.33a2.61,2.61,0,0,0,.69.13Zm11.5-4.44c-.2-2.82.33-5.68,3.69-5.92,2.39-.17,3.47,1.91,3.61,3.93.18,2.52-.83,5.62-3.63,5.82-2,.15-3.56-1.57-3.75-3.82Zm5.7-2c-.07-1-.67-2.11-1.7-2-2,.14-2.1,2.28-2,3.72s.66,2.31,1.68,2.24c1.65-.17,2-2.4,1.94-4Zm3.28,1c-.19-2.72.82-5.17,3.73-5.37,2.44-.17,3.57,2,3.71,3.95.17,2.39-1,5.34-3.64,5.64-2.35.17-3.67-1.64-3.88-4.21Zm5.85-1.61c-.07-1-.62-2-1.84-1.9-1.89.13-1.91,2.41-1.82,3.76s.66,2.26,1.71,2.19c1.69-.12,2-2.45,1.87-4Zm5.49-.71a3.44,3.44,0,0,0,.1,1,13.29,13.29,0,0,1,3.63-4.66,2.51,2.51,0,0,1,1-.45,1.23,1.23,0,0,1,1.27,1.31c0,.35-.52.39-1.19.88a14.64,14.64,0,0,0-2.57,2.31,13.07,13.07,0,0,0,5,3.84.26.26,0,0,1,.19.24,1.13,1.13,0,0,1-1.1,1.13c-1.75.12-3.63-1.7-5.2-3.7l-.75,1c.21,1.14.4,2.15.42,2.43,0,.65-.06.88-.44.91-1.17.08-1.42-.88-1.55-1.77-.33-2.18-.61-4.12-.78-6.51a69.41,69.41,0,0,1-.17-7.05c0-.5.19-.92.71-1s1.43.33,1.48,1v.8a50.46,50.46,0,0,0-.13,8.3Zm9.06,4.13h1.28c1.15-.08,2.38-.39,2.3-1.46s-4.12-1.94-4.29-4.36v-.15c0-2.15,2.54-3.16,4.11-3.27h.3c.7,0,1,.18,1,.68a3.5,3.5,0,0,1,0,.45c-.11,1-3.29.53-3.18,2.15.06.8,1.09,1.33,2,1.92,1.24.82,2.35,1.29,2.43,2.49v.13c0,1.73-2.54,2.73-4.08,2.92h-.25a8.55,8.55,0,0,1-1.25,0,1.26,1.26,0,0,1-1-1c0-.22.12-.43.52-.46Z"/></svg>